<svg xmlns="https://www.w3.org/2000/svg" viewBox="0 0 667.07 789.36"><defs><style>.cls-1{fill:#fff;}.cls-2{fill:#212529;}.cls-3{fill:#c5733d;}.cls-4{fill:none;}</style></defs><g id="Layer_2" data-name="Layer 2"><g id="state_outline" data-name="state outline"><path class="cls-1" d="M667.07.8s-.7,785.89-.7,788.05c0,.7-234.4.57-235.17.28C291.1,735.74,140.81,683.81.14,631.08c-.78-1.56,2-.62,1.25-1.58-.89-.65-1.28-1.36-.62-2.37a2.27,2.27,0,0,0,.55-2.51c1.26-.37,2.58-2.39.72-2.23-4.36,2.74,1.35-3.33-.79-4.87C-1.41,615.18,7,613,7.81,608.91c5.5-20.1,11.56-3.4,21.47-12,5.65.91,2.45-3.63,4.64-6.93,2.45-3.53,7.64-5,6.74-10.07,1.41-7.52-2.81-4.68-.38-13.31-4.9-.5-2-.91-3.8-5.33-2.79-8.37-12.48,1.52-15.93-4.89-2-1.95-2.86,6.31-4.14-2a5.53,5.53,0,0,1-1.65-3.55c-.53-.35-2.19.51-1.92-.78.74-6.55,6.15-13.38,2.83-19.81-1.69-1.3-.22-2.23,1-3,1-4.64-5.64-2.08-6.37-5.45C19.14,509,5.38,507.34,13.59,506c7-1.54,8,.23,9.92-8,1.83-3.71,5.46-5.37,6.75-9.09,4.9-2.13,1.91-4.06,1.78-7.83,3.67-3.08-.56-8.51,2.7-9.42-4.43-3.68,1.1-3.34,2.82-6.37-.9-3.19-2-4.82-1.44-8.26-2.46-4.45-1.78-8.15-2.88-12.72,7-1.64.23-3.57,1-6.43.73.45,2.12.2,1.39-.92-7-5,1.86-7,4.68-11.23,3.78-2.86-3.44-1.09,3.29-4.17-.08-11.89,2.16-11.65,11.82-15.91,2.73-.23,3.82-3.19,5.63-4.81,2.6-.64,5.18-1.1,7.27-2.92.4-3.94,6-6.11,7.68-9.72,1.12-.46,3.65.8,3.36-1.2-.33-9.88-9.69-11.92-15-18.33-3.44-.88-5.77-4.35-8.49-6.86-1.51-1.66-4.1,1.64-5.47-.53,0-7.21,1.13-15-6.3-19.47.06-1.47,3.06-2.21.44-3.55C43.16,336,42,333,42.06,330.91c-1.64-7.07-7.4-9.16-12-14.36-1.11-7.22-8.59-11.09-8.87-17.13,2.14-7.88-3.81-17.9,3.16-23.26,1.27-3.71-5.81-3.28-4.79-6.51,9-3.19,10.33-5.4,7.47-15.41-.61-13.55-4.93-25.63-11-37.86-.86-4.92,3.9-8.85.16-13.1,4.84-2.4.7-6.53-1.22-9.33-.88-1.53-.08-3.36.51-4.83-.92-2.15-3.88-3.24-2.31-6.06a16,16,0,0,0-1.23-11.67c.78-2,2.56-3.53.87-5.76-.71-2.06,4.31-2.29,4.83-3.79a20.45,20.45,0,0,1-7.93-12.77c-3.21-3.13-.48-7.13.75-10-2.81-1.81-.19-4.62-3.38-6.77,0-5.86,8.74-2.79,11.1-6.3,5-5.27,2.75,1.45,9.82-3.78,2.67-1,4.63.92,6.92-.24,2.51.8.54,1.07.5,2.69.48,1.65,2.68.08,3.74-.59,1.48-1.16,2.62-.35,3.37,1.11,3.07-.32,6.68-4.71,9.92-.75,1.5,3.16,5.8,4.58,6.45,8.15C57,135.52,58,135,60.43,135.84c7.37,8.41,7.06,5.77,16.81,3.27,2.81-8.48,4.83-13.93,9.51-21.81C92,108.22,86.81,12,88.44,2.46,85.93-3,666.62,2.68,667.07.8Z"/><path class="cls-2" d="M132.89,138.28l-6.55-46.17h7.06L137.22,122,142,92.22h5.76l4.9,29.81,3.76-29.92h7l-6.45,46.17H150.1l-5.13-31-5.07,31Z"/><path class="cls-2" d="M168.52,138.28V92.11H187.9V98H177v13.29h8.61v5.87H177v15.27H188v5.82Z"/><path class="cls-2" d="M211.61,138.28l-6.56-46.17h7.07L215.94,122l4.79-29.81h5.75L231.39,122l3.76-29.92h6.95l-6.44,46.17h-6.84l-5.13-31-5.07,31Z"/><path class="cls-2" d="M247.46,138.28V92.11h8.32v46.17Z"/><path class="cls-2" d="M262.91,138.28V92.11h8.43v40.35h11.17v5.82Z"/><path class="cls-2" d="M286.67,138.28V92.11h8.44v40.35h11.17v5.82Z"/><path class="cls-2" d="M336.72,138.9q-5.07,0-8-2a10.41,10.41,0,0,1-4-5.45,25.24,25.24,0,0,1-1.14-8V107a26.47,26.47,0,0,1,1.14-8.21,9.86,9.86,0,0,1,4-5.36,17.9,17.9,0,0,1,15.45-.25,8.93,8.93,0,0,1,3.84,4.64,19.82,19.82,0,0,1,1.14,7v3.88h-8.09v-4a29.14,29.14,0,0,0-.2-3.53,4.36,4.36,0,0,0-1.08-2.54,4.06,4.06,0,0,0-3.05-.94,4.32,4.32,0,0,0-3.17,1,4.83,4.83,0,0,0-1.28,2.68,22.8,22.8,0,0,0-.28,3.79v20.06a18.12,18.12,0,0,0,.39,4.13,4.25,4.25,0,0,0,1.46,2.45,4.55,4.55,0,0,0,2.88.83,3.82,3.82,0,0,0,3-1,4.87,4.87,0,0,0,1.11-2.65,27.47,27.47,0,0,0,.23-3.7v-4.16h8.09v3.7a22.46,22.46,0,0,1-1.08,7.27,9.47,9.47,0,0,1-3.79,5C342.52,138.3,340,138.9,336.72,138.9Z"/><path class="cls-2" d="M367.61,138.9a14.66,14.66,0,0,1-7.81-1.82,10.18,10.18,0,0,1-4.16-5.24,23.73,23.73,0,0,1-1.25-8.1V106.47a22.92,22.92,0,0,1,1.25-8,9.89,9.89,0,0,1,4.16-5.1,18.31,18.31,0,0,1,15.71,0,10,10,0,0,1,4.16,5.1,22.43,22.43,0,0,1,1.28,8V123.8a22.74,22.74,0,0,1-1.28,8,10.42,10.42,0,0,1-4.16,5.24A14.54,14.54,0,0,1,367.61,138.9Zm0-6.21a4.5,4.5,0,0,0,3.11-.91,4.6,4.6,0,0,0,1.34-2.51,16.43,16.43,0,0,0,.34-3.48V104.53a16,16,0,0,0-.34-3.48,4.4,4.4,0,0,0-1.34-2.42,4.6,4.6,0,0,0-3.11-.88,4.52,4.52,0,0,0-3,.88,4.38,4.38,0,0,0-1.37,2.42,16.69,16.69,0,0,0-.34,3.48v21.26a17.92,17.92,0,0,0,.32,3.48,4.3,4.3,0,0,0,1.34,2.51A4.49,4.49,0,0,0,367.61,132.69Z"/><path class="cls-2" d="M387.05,138.28l.8-46.17h8.72l6.55,32,6.84-32h8.44l.86,46.17H413l-.68-32.09-6.55,32.09h-5.08L394,106.07l-.62,32.21Z"/><path class="cls-2" d="M425.75,138.28V92.11h19.38V98H434.19v13.29h8.61v5.87h-8.61v15.27h11.06v5.82Z"/><path class="cls-2" d="M468.62,138.28v-40h-7.36V92.11h23v6.21h-7.24v40Z"/><path class="cls-2" d="M500.82,138.9a14.63,14.63,0,0,1-7.81-1.82,10.13,10.13,0,0,1-4.16-5.24,23.49,23.49,0,0,1-1.25-8.1V106.47a22.69,22.69,0,0,1,1.25-8,9.85,9.85,0,0,1,4.16-5.1,18.31,18.31,0,0,1,15.71,0,10.09,10.09,0,0,1,4.16,5.1,22.43,22.43,0,0,1,1.28,8V123.8a22.74,22.74,0,0,1-1.28,8,10.47,10.47,0,0,1-4.16,5.24A14.57,14.57,0,0,1,500.82,138.9Zm0-6.21a4.5,4.5,0,0,0,3.11-.91,4.66,4.66,0,0,0,1.34-2.51,16.43,16.43,0,0,0,.34-3.48V104.53a16,16,0,0,0-.34-3.48,4.46,4.46,0,0,0-1.34-2.42,4.6,4.6,0,0,0-3.11-.88,4.5,4.5,0,0,0-3,.88,4.38,4.38,0,0,0-1.37,2.42,16,16,0,0,0-.34,3.48v21.26a18,18,0,0,0,.31,3.48,4.42,4.42,0,0,0,1.34,2.51A4.52,4.52,0,0,0,500.82,132.69Z"/><path class="cls-2" d="M540.66,138.28V120.66l-9.35-28.55h7.87l5.7,18.29,5.36-18.29h7.69l-9.23,28.55v17.62Z"/><path class="cls-2" d="M574.07,138.9a14.61,14.61,0,0,1-7.81-1.82,10.09,10.09,0,0,1-4.16-5.24,23.48,23.48,0,0,1-1.26-8.1V106.47a22.67,22.67,0,0,1,1.26-8,9.8,9.8,0,0,1,4.16-5.1,18.29,18.29,0,0,1,15.7,0,10,10,0,0,1,4.16,5.1,22.21,22.21,0,0,1,1.28,8V123.8a22.51,22.51,0,0,1-1.28,8,10.37,10.37,0,0,1-4.16,5.24A14.53,14.53,0,0,1,574.07,138.9Zm0-6.21a4.47,4.47,0,0,0,3.1-.91,4.6,4.6,0,0,0,1.34-2.51,16.43,16.43,0,0,0,.34-3.48V104.53a16,16,0,0,0-.34-3.48,4.4,4.4,0,0,0-1.34-2.42,5.78,5.78,0,0,0-6.13,0,4.31,4.31,0,0,0-1.36,2.42,16,16,0,0,0-.35,3.48v21.26a17.92,17.92,0,0,0,.32,3.48,4.36,4.36,0,0,0,1.34,2.51A4.5,4.5,0,0,0,574.07,132.69Z"/><path class="cls-2" d="M606.27,138.9c-3.42,0-6.08-.62-8-1.88a9.59,9.59,0,0,1-3.93-5.36,28.17,28.17,0,0,1-1.09-8.32V92.11h8.21v32.2a27.68,27.68,0,0,0,.29,4.08,5.64,5.64,0,0,0,1.34,3.07,4.93,4.93,0,0,0,6.38,0,6.18,6.18,0,0,0,1.31-3.07,25.13,25.13,0,0,0,.31-4.08V92.11h8.16v31.23a28.17,28.17,0,0,1-1.09,8.32,9.63,9.63,0,0,1-3.9,5.36C612.4,138.28,609.73,138.9,606.27,138.9Z"/><path class="cls-3" d="M194.06,263.62l16.37-81.81h15.95l16.37,81.81H228.91l-3.23-18.88H211.44l-3.34,18.88ZM213,235.24h11.11l-5.55-34.34Z"/><path class="cls-3" d="M250.52,263.62V181.81h10.41l19.89,46.67V181.81h12.32v81.81h-9.89l-20-48.88v48.88Z"/><path class="cls-3" d="M317,263.62V232.41l-16.56-50.6h13.93l10.1,32.42,9.5-32.42h13.63l-16.36,50.6v31.21Z"/><path class="cls-3" d="M363.34,263.62l-11.62-81.81h12.53l6.76,53L379.5,182h10.2l8.69,52.82,6.66-53h12.32L406,263.62H393.84l-9.09-54.84-9,54.84Z"/><path class="cls-3" d="M426.66,263.62V181.81h14.85v34.24h16.67V181.81h14.95v81.81H458.18v-37H441.51v37Z"/><path class="cls-3" d="M485.65,263.62V181.81H520v10.51H500.6v23.53h15.25v10.4H500.6v27.07h19.59v10.3Z"/><path class="cls-3" d="M528.88,263.62V181.81h19.59a43.34,43.34,0,0,1,14,2,16.11,16.11,0,0,1,8.68,6.72c2,3.17,3,7.47,3,12.93a40.08,40.08,0,0,1-.9,8.89,17,17,0,0,1-3.09,6.71,13.87,13.87,0,0,1-6,4.29l11.41,40.3H560.59l-9.9-37.47h-6.87v37.47Zm14.94-46.86h4.65a15.94,15.94,0,0,0,6.92-1.26,7.35,7.35,0,0,0,3.68-4,19.39,19.39,0,0,0,1.12-7.12q0-6.17-2.28-9.24T549.28,192h-5.46Z"/><path class="cls-3" d="M585.33,263.62V181.81h34.34v10.51H600.28v23.53h15.25v10.4H600.28v27.07h19.6v10.3Z"/><path class="cls-3" d="M154.78,384.82V303h14.74v81.81Z"/><path class="cls-3" d="M182.15,384.82V303h10.4l19.9,46.67V303h12.32v81.81h-9.9l-20-48.88v48.88Z"/><path class="cls-3" d="M257.6,384.82,274,303h16l16.36,81.81H292.44l-3.23-18.88H275l-3.33,18.88Zm18.88-28.38h11.11L282,322.1Z"/><path class="cls-3" d="M314.05,384.82V303h19.6a43.34,43.34,0,0,1,14,2,16.11,16.11,0,0,1,8.68,6.72c2,3.17,3,7.47,3,12.93a39.46,39.46,0,0,1-.91,8.89,16.8,16.8,0,0,1-3.08,6.71,13.92,13.92,0,0,1-6,4.3l11.42,40.29h-15l-9.9-37.47H329v37.47ZM329,338h4.65a15.94,15.94,0,0,0,6.92-1.26,7.39,7.39,0,0,0,3.68-4,19.41,19.41,0,0,0,1.11-7.12c0-4.11-.75-7.19-2.27-9.24s-4.39-3.09-8.63-3.09H329Z"/><path class="cls-3" d="M370.92,384.82V303h14.74v81.81Z"/><path class="cls-3" d="M395.46,384.82v-9.59l22-61.91H396.67V303h35.85v7.68L409.7,374.52h22.93v10.3Z"/><path class="cls-3" d="M463,385.94q-8.7,0-13.84-3.24a17.85,17.85,0,0,1-7.37-9.29,41.46,41.46,0,0,1-2.23-14.34v-30.6a40.14,40.14,0,0,1,2.23-14.19,17.38,17.38,0,0,1,7.37-9q5.15-3.14,13.84-3.14,8.88,0,14,3.14a17.73,17.73,0,0,1,7.38,9,39.65,39.65,0,0,1,2.27,14.19v30.7a40.19,40.19,0,0,1-2.27,14.19,18.46,18.46,0,0,1-7.38,9.29Q471.91,385.93,463,385.94Zm0-11q3.74,0,5.5-1.62a8.11,8.11,0,0,0,2.37-4.44,29.07,29.07,0,0,0,.61-6.17V325a28.12,28.12,0,0,0-.61-6.16,7.74,7.74,0,0,0-2.37-4.29c-1.18-1-3-1.57-5.5-1.57a8,8,0,0,0-5.36,1.57,7.62,7.62,0,0,0-2.42,4.29,28.75,28.75,0,0,0-.61,6.16V362.7a32.08,32.08,0,0,0,.56,6.17,7.75,7.75,0,0,0,2.37,4.44A8,8,0,0,0,463,374.93Z"/><path class="cls-3" d="M497.67,384.82V303h10.4L528,349.68V303h12.32v81.81h-9.9l-20-48.88v48.88Z"/><path class="cls-3" d="M548.57,384.82,564.93,303h16l16.36,81.81H583.42l-3.24-18.88H565.94l-3.33,18.88Zm18.89-28.38h11.11L573,322.1Z"/><path class="cls-3" d="M603.72,384.82V371.49h13.33v13.33ZM608,365.63l-4.14-62.52h13.73l-4.84,62.52Z"/><rect class="cls-4" x="323.85" y="472.8" width="298.55" height="167.94"/><path class="cls-2" d="M546.52,567.47a49.54,49.54,0,0,0,4.14-13.06,2.63,2.63,0,0,0-.67-2.27c-8.46-9.07-18.18-14.81-28.92-17.1l-12.53-48h8a2.64,2.64,0,0,0,2.64-2.64V480a7.14,7.14,0,0,0-7.13-7.13H418a2.64,2.64,0,0,0-2.64,2.64v8.89a2.64,2.64,0,0,0,2.64,2.64h2.72v40.21h-6.42a17.93,17.93,0,0,0-17.86,18v25.69a2.64,2.64,0,0,0,2.64,2.64H409.7l5.65,4.91v0a16.76,16.76,0,0,0,33.32,2.64h68.71a16.76,16.76,0,1,0,29.14-13.66Zm-1.31-12.7a44.5,44.5,0,0,1-2.9,9.26,16.74,16.74,0,0,0-24.93,11.82H448.67A16.3,16.3,0,0,0,448,573H506.7a2.64,2.64,0,0,0,2.58-2.1c1.75-8.34,5.5-18.64,11.15-30.64C529.63,542.34,537.77,547.09,545.21,554.77Zm-124.58-76.6h91.44a1.87,1.87,0,0,1,1.84,1.85v1.76H420.63Zm82.45,8.89,13.05,50c-.7,1.48-1.38,2.93-2,4.37l-25.31-27,3.34-3.12a2.64,2.64,0,0,0-3.6-3.86L478,517.34a2.64,2.64,0,0,0,1.8,4.57,2.66,2.66,0,0,0,1.8-.71l3.36-3.14,26.87,28.62a136.24,136.24,0,0,0-7.21,21.08H477.44l-3-14.7h3.15a2.64,2.64,0,0,0,2.64-2.64V538.89a2.64,2.64,0,0,0-2.64-2.64h-24l-9-30.92a2.65,2.65,0,0,0-3.29-1.79l-8.54,2.55a2.64,2.64,0,0,0-1.78,3.27l9.61,32.77L426,540.35V487.06Zm-56.82,55.77-9.51-32.43,3.47-1,8.85,30.27a2.64,2.64,0,0,0,2.54,1.9h23.32v6.25h-1.6a2.65,2.65,0,0,0-2.22-1.92Zm-44.55,2.4a12.79,12.79,0,0,1,12.58-12.67h6.42v7.14L415,539a2.61,2.61,0,0,0-2.93,2.26l-3.65,27h-6.67Zm11.78,24.63,3.42-25.3,51.68,6.31L472,567.76h-27.1a16.76,16.76,0,0,0-28.46,4.7ZM432.07,590a11.49,11.49,0,1,1,11.53-11.53A11.5,11.5,0,0,1,432.07,590Zm101.82,0a11.49,11.49,0,1,1,11.53-11.53A11.5,11.5,0,0,1,533.89,590Z"/><path class="cls-2" d="M354.74,635.56H344.51l-1.95,4.72h-5.22l9.82-22h5l9.85,22h-5.35Zm-1.61-3.87-3.49-8.44-3.49,8.44Z"/><path class="cls-2" d="M378.37,640.28l-4.25-6.14h-4.69v6.14h-5.09v-22h9.53a12.24,12.24,0,0,1,5.08,1,7.86,7.86,0,0,1,3.31,11.24,7.5,7.5,0,0,1-3.36,2.73l4.94,7.08Zm-1.29-16.89a5.36,5.36,0,0,0-3.49-1h-4.16v7.68h4.16a5.25,5.25,0,0,0,3.49-1,4,4,0,0,0,0-5.68Z"/><path class="cls-2" d="M391.91,639.19a10.91,10.91,0,0,1-4.27-4.06,11.82,11.82,0,0,1,0-11.74,10.81,10.81,0,0,1,4.27-4,12.7,12.7,0,0,1,6.12-1.47,12.87,12.87,0,0,1,5.18,1,10.47,10.47,0,0,1,3.89,2.89l-3.28,3a7.06,7.06,0,0,0-5.53-2.58,7.32,7.32,0,0,0-3.65.9,6.42,6.42,0,0,0-2.51,2.5,7.93,7.93,0,0,0,0,7.3,6.35,6.35,0,0,0,2.51,2.5,7.32,7.32,0,0,0,3.65.9,7,7,0,0,0,5.53-2.61l3.28,3a10.27,10.27,0,0,1-3.91,2.93,13,13,0,0,1-5.19,1A12.63,12.63,0,0,1,391.91,639.19Z"/><path class="cls-2" d="M424.59,635.56H414.36l-1.95,4.72h-5.22l9.82-22h5l9.85,22h-5.35Zm-1.6-3.87-3.5-8.44L416,631.69Z"/><path class="cls-2" d="M434.19,618.25h10a14.08,14.08,0,0,1,6.34,1.37,10.26,10.26,0,0,1,4.28,3.85,11.72,11.72,0,0,1,0,11.58,10.28,10.28,0,0,1-4.28,3.86,14.08,14.08,0,0,1-6.34,1.37h-10Zm9.75,17.84a7.39,7.39,0,0,0,5.27-1.84,7.29,7.29,0,0,0,0-10,7.4,7.4,0,0,0-5.27-1.85h-4.66v13.66Z"/><path class="cls-2" d="M460.18,618.25h5.09v22h-5.09Z"/><path class="cls-2" d="M485,635.56H474.78l-2,4.72H467.6l9.82-22h5l9.85,22H487Zm-1.6-3.87-3.5-8.44-3.49,8.44Z"/><path class="cls-2" d="M508,639.19a10.91,10.91,0,0,1-4.27-4.06,11.82,11.82,0,0,1,0-11.74,10.81,10.81,0,0,1,4.27-4,12.7,12.7,0,0,1,6.12-1.47,12.87,12.87,0,0,1,5.18,1,10.47,10.47,0,0,1,3.89,2.89l-3.28,3a7.06,7.06,0,0,0-5.53-2.58,7.32,7.32,0,0,0-3.65.9,6.33,6.33,0,0,0-2.5,2.5,7.85,7.85,0,0,0,0,7.3,6.27,6.27,0,0,0,2.5,2.5,7.32,7.32,0,0,0,3.65.9,7,7,0,0,0,5.53-2.61l3.28,3a10.31,10.31,0,0,1-3.9,2.93,13,13,0,0,1-5.2,1A12.63,12.63,0,0,1,508,639.19Z"/><path class="cls-2" d="M540.63,635.56H530.41l-2,4.72h-5.22l9.82-22h5l9.85,22h-5.35Zm-1.6-3.87-3.5-8.44L532,631.69Z"/><path class="cls-2" d="M564.26,640.28,560,634.14h-4.69v6.14h-5.09v-22h9.53a12.21,12.21,0,0,1,5.08,1,7.52,7.52,0,0,1,3.32,2.76,7.63,7.63,0,0,1,1.17,4.25,7.2,7.2,0,0,1-4.53,7l4.94,7.08ZM563,623.39a5.36,5.36,0,0,0-3.49-1h-4.16v7.68h4.16a5.25,5.25,0,0,0,3.49-1,4,4,0,0,0,0-5.68Z"/><path class="cls-2" d="M577.6,622.4h-7.05v-4.15h19.2v4.15h-7v17.88h-5.1Z"/><path class="cls-2" d="M594.51,639.94a11.67,11.67,0,0,1-3.91-1.84l1.73-3.83a11.72,11.72,0,0,0,3.36,1.66,12.64,12.64,0,0,0,3.91.63,6.28,6.28,0,0,0,3.21-.64,1.94,1.94,0,0,0,1-1.72,1.62,1.62,0,0,0-.61-1.3,4.59,4.59,0,0,0-1.57-.84c-.64-.21-1.51-.44-2.6-.69a38,38,0,0,1-4.12-1.19,6.67,6.67,0,0,1-2.75-1.92,5.19,5.19,0,0,1-1.15-3.53,6,6,0,0,1,1-3.47,6.88,6.88,0,0,1,3.13-2.47,12.72,12.72,0,0,1,5.11-.92,16.73,16.73,0,0,1,4.12.51,12.1,12.1,0,0,1,3.53,1.44l-1.58,3.87a12.3,12.3,0,0,0-6.1-1.73,5.62,5.62,0,0,0-3.16.7,2.09,2.09,0,0,0-1,1.82,1.78,1.78,0,0,0,1.18,1.68,18.58,18.58,0,0,0,3.61,1.09,38.7,38.7,0,0,1,4.12,1.19,6.86,6.86,0,0,1,2.75,1.89,5.06,5.06,0,0,1,1.15,3.5,6,6,0,0,1-1,3.44,7.12,7.12,0,0,1-3.17,2.47,12.83,12.83,0,0,1-5.13.91A17.76,17.76,0,0,1,594.51,639.94Z"/></g></g></svg>