<svg xmlns="http://www.w3.org/2000/svg" viewBox="0 0 514.5 289.41"><defs><style>.cls-1{fill:none;}.cls-2{fill:#fff;}</style></defs><g id="Layer_2" data-name="Layer 2"><g id="Layer_1-2" data-name="Layer 1"><rect class="cls-1" width="514.5" height="289.41"/><path class="cls-2" d="M383.74,163.15a86.12,86.12,0,0,0,7.13-22.52,4.53,4.53,0,0,0-1.15-3.91c-14.58-15.63-31.34-25.52-49.84-29.46l-21.6-82.69H332.1A4.55,4.55,0,0,0,336.65,20V12.43A12.3,12.3,0,0,0,324.36.15H162.23a4.55,4.55,0,0,0-4.55,4.55V20a4.55,4.55,0,0,0,4.55,4.55h4.7v69.3H155.86a30.91,30.91,0,0,0-30.79,30.94v44.28a4.55,4.55,0,0,0,4.55,4.55H148l9.73,8.45v0a28.89,28.89,0,0,0,57.43,4.55H333.52a28.89,28.89,0,1,0,50.22-23.54Zm-2.26-21.89a77.11,77.11,0,0,1-5,16,28.86,28.86,0,0,0-43,20.38H215.1a28.36,28.36,0,0,0-1.23-4.86H315.11a4.55,4.55,0,0,0,4.45-3.61c3-14.37,9.48-32.13,19.22-52.8C354.63,119.83,368.65,128,381.48,141.26Zm-214.7-132H324.36a3.22,3.22,0,0,1,3.18,3.18v3H166.78ZM308.87,24.57l22.5,86.14c-1.21,2.55-2.38,5.07-3.5,7.54L284.24,71.79,290,66.41a4.55,4.55,0,1,0-6.2-6.65l-18.2,17a4.55,4.55,0,0,0,6.2,6.65l5.79-5.4,46.3,49.31a235.59,235.59,0,0,0-12.42,36.32H264.68l-5.19-25.32h5.42a4.55,4.55,0,0,0,4.55-4.55V113.89a4.55,4.55,0,0,0-4.55-4.55H223.58L208,56.05a4.48,4.48,0,0,0-2.19-2.72,4.54,4.54,0,0,0-3.48-.37l-14.71,4.4A4.55,4.55,0,0,0,184.56,63l16.56,56.47L176,116.4V24.57ZM211,120.67,194.57,64.78l6-1.78,15.25,52.16a4.55,4.55,0,0,0,4.37,3.28h40.19v10.77H257.6a4.53,4.53,0,0,0-3.82-3.3Zm-76.77,4.14A22.05,22.05,0,0,1,155.86,103h11.07v12.32L157,114.08A4.5,4.5,0,0,0,152,118l-6.29,46.56H134.18Zm20.3,42.45,5.9-43.61,89.05,10.89,6,29.09H208.68a28.89,28.89,0,0,0-49.05,8.1Zm32,34.74a19.79,19.79,0,1,1,19.86-19.86A19.81,19.81,0,0,1,186.5,202ZM362,202a19.79,19.79,0,1,1,19.87-19.86A19.8,19.8,0,0,1,362,202Z"/><path class="cls-2" d="M53.24,280.47H35.61l-3.36,8.14h-9l16.92-38h8.67l17,38H56.6Zm-2.77-6.66-6-14.54-6,14.54Z"/><path class="cls-2" d="M94,288.61,86.64,278H78.56v10.58H69.77v-38H86.2A21.1,21.1,0,0,1,95,252.33a13.06,13.06,0,0,1-.08,24.08l8.51,12.2Zm-2.23-29.09a9.21,9.21,0,0,0-6-1.71H78.56V271h7.15a9.1,9.1,0,0,0,6-1.74,6.83,6.83,0,0,0,0-9.78Z"/><path class="cls-2" d="M117.3,286.74a18.67,18.67,0,0,1-7.37-7,20.34,20.34,0,0,1,0-20.22,18.67,18.67,0,0,1,7.37-7,23.52,23.52,0,0,1,19.47-.78,17.92,17.92,0,0,1,6.69,5l-5.64,5.21a12.12,12.12,0,0,0-9.54-4.45A12.67,12.67,0,0,0,122,259a11,11,0,0,0-4.31,4.31,13.54,13.54,0,0,0,0,12.58,11,11,0,0,0,4.31,4.31,12.67,12.67,0,0,0,6.29,1.55,12,12,0,0,0,9.54-4.5l5.64,5.2a17.5,17.5,0,0,1-6.72,5,22.29,22.29,0,0,1-9,1.74A21.81,21.81,0,0,1,117.3,286.74Z"/><path class="cls-2" d="M173.61,280.47H156l-3.36,8.14h-9l16.92-38h8.68l17,38H177Zm-2.76-6.66-6-14.54-6,14.54Z"/><path class="cls-2" d="M190.15,250.65h17.24A24.31,24.31,0,0,1,218.32,253a17.66,17.66,0,0,1,7.37,6.64,20.25,20.25,0,0,1,0,20,17.66,17.66,0,0,1-7.37,6.64,24.31,24.31,0,0,1-10.93,2.36H190.15ZM207,281.4a12.74,12.74,0,0,0,9.08-3.18A12.58,12.58,0,0,0,216,261a12.74,12.74,0,0,0-9.08-3.18h-8V281.4Z"/><path class="cls-2" d="M234.94,250.65h8.78v38h-8.78Z"/><path class="cls-2" d="M277.72,280.47H260.1l-3.37,8.14h-9l16.92-38h8.68l17,38h-9.22ZM275,273.81l-6-14.54-6,14.54Z"/><path class="cls-2" d="M317.27,286.74a18.81,18.81,0,0,1-7.37-7,20.41,20.41,0,0,1,0-20.22,18.81,18.81,0,0,1,7.37-7,23.52,23.52,0,0,1,19.47-.78,17.88,17.88,0,0,1,6.7,5l-5.64,5.21a12.15,12.15,0,0,0-9.55-4.45A12.69,12.69,0,0,0,322,259a11,11,0,0,0-4.31,4.31,13.62,13.62,0,0,0,0,12.58,11,11,0,0,0,4.31,4.31,12.69,12.69,0,0,0,6.29,1.55,12.08,12.08,0,0,0,9.55-4.5l5.64,5.2a17.46,17.46,0,0,1-6.73,5,22.21,22.21,0,0,1-8.94,1.74A21.85,21.85,0,0,1,317.27,286.74Z"/><path class="cls-2" d="M373.59,280.47H356l-3.36,8.14h-9l16.92-38h8.67l17,38H377Zm-2.77-6.66-6-14.54-6,14.54Z"/><path class="cls-2" d="M414.31,288.61,407,278h-8.08v10.58h-8.79v-38h16.43a21.1,21.1,0,0,1,8.76,1.68,13.06,13.06,0,0,1-.08,24.08l8.51,12.2Zm-2.23-29.09a9.21,9.21,0,0,0-6-1.71h-7.15V271h7.15a9.1,9.1,0,0,0,6-1.74,6.83,6.83,0,0,0,0-9.78Z"/><path class="cls-2" d="M437.3,257.81H425.15v-7.16h33.08v7.16H446.08v30.8H437.3Z"/><path class="cls-2" d="M466.44,288a20.39,20.39,0,0,1-6.75-3.17l3-6.62a20.48,20.48,0,0,0,5.81,2.88,21.85,21.85,0,0,0,6.72,1.08,10.75,10.75,0,0,0,5.53-1.11,3.37,3.37,0,0,0,1.79-3,2.82,2.82,0,0,0-1.06-2.25,8.07,8.07,0,0,0-2.71-1.43c-1.1-.37-2.59-.76-4.47-1.2a59.72,59.72,0,0,1-7.1-2.06,11.52,11.52,0,0,1-4.75-3.3,9,9,0,0,1-2-6.08,10.6,10.6,0,0,1,1.79-6,12,12,0,0,1,5.4-4.26,22.14,22.14,0,0,1,8.81-1.57,29.06,29.06,0,0,1,7.1.87,21.11,21.11,0,0,1,6.07,2.49L486.91,260a21.12,21.12,0,0,0-10.52-3,9.92,9.92,0,0,0-5.45,1.19,3.67,3.67,0,0,0-1.76,3.15,3.08,3.08,0,0,0,2,2.9,32,32,0,0,0,6.21,1.87,61.91,61.91,0,0,1,7.11,2.06,11.82,11.82,0,0,1,4.74,3.25,8.74,8.74,0,0,1,2,6,10.38,10.38,0,0,1-1.82,5.94,12.17,12.17,0,0,1-5.45,4.26,22.32,22.32,0,0,1-8.83,1.57A31.22,31.22,0,0,1,466.44,288Z"/></g></g></svg>